<?xml version="1.0" encoding="UTF-8" standalone="no"?>
<svg
   width="1536"
   height="512"
   viewBox="0 0 406.39999 135.46667"
   version="1.1"
   id="svg1"
   inkscape:version="1.3.2 (091e20e, 2023-11-25, custom)"
   sodipodi:docname="logo-tagline-horizontal.svg"
   xmlns:inkscape="http://www.inkscape.org/namespaces/inkscape"
   xmlns:sodipodi="http://sodipodi.sourceforge.net/DTD/sodipodi-0.dtd"
   xmlns="http://www.w3.org/2000/svg"
   xmlns:svg="http://www.w3.org/2000/svg">
  <sodipodi:namedview
     id="namedview1"
     pagecolor="#ffffff"
     bordercolor="#000000"
     borderopacity="0.25"
     inkscape:showpageshadow="2"
     inkscape:pageopacity="0.0"
     inkscape:pagecheckerboard="0"
     inkscape:deskcolor="#d1d1d1"
     inkscape:document-units="px"
     showguides="true"
     inkscape:zoom="0.51213161"
     inkscape:cx="627.76832"
     inkscape:cy="159.13878"
     inkscape:window-width="1920"
     inkscape:window-height="1009"
     inkscape:window-x="-8"
     inkscape:window-y="-8"
     inkscape:window-maximized="1"
     inkscape:current-layer="svg1">
    <sodipodi:guide
       position="-33.581049,56.422044"
       orientation="0,1"
       id="guide1"
       inkscape:locked="false"
       inkscape:label=""
       inkscape:color="rgb(0,134,229)" />
  </sodipodi:namedview>
  <defs
     id="defs1" />
  <path
     id="rect2"
     style="display:inline;fill:#000000;fill-opacity:0.8;fill-rule:evenodd;stroke-width:4.44004;stroke-linejoin:round;paint-order:stroke fill markers"
     d="M 68.825256 16.367476 C 68.118717 16.367476 67.698347 16.590989 67.386068 16.80931 L 23.930322 47.191435 C 23.132863 47.748963 22.939744 48.839305 23.497274 49.636764 L 25.672852 52.749235 C 26.230381 53.546692 27.321755 53.74033 28.119214 53.1828 L 65.954631 26.730151 A 5.0097283 5.0097283 0 0 1 71.695882 26.730151 L 109.53182 53.1828 C 110.32927 53.74033 111.42012 53.546689 111.97766 52.749235 L 114.15376 49.636764 C 114.7113 48.839307 114.51816 47.748963 113.72071 47.191435 L 70.264962 16.80931 C 69.827332 16.503359 69.398446 16.367476 68.825256 16.367476 z M 68.678495 30.103072 C 68.520095 30.106172 68.360848 30.114417 68.202039 30.127877 C 67.370909 30.198217 66.653922 30.405264 66.229032 30.698385 L 53.575024 39.429635 L 41.831555 47.532499 A 0.34470068 0.34470068 0 0 0 42.027409 48.160885 L 54.873136 48.160885 L 68.825256 48.160885 L 82.777893 48.160885 L 96.730013 48.160885 L 84.076005 39.429635 L 71.421997 30.698385 C 70.853728 30.306315 69.787274 30.081232 68.678495 30.103072 z M 326.25502 43.97406 C 325.51023 43.97406 324.8162 44.109921 324.17298 44.380754 C 323.54668 44.651587 322.988 45.032433 322.49711 45.523319 C 322.02315 45.997279 321.65122 46.555443 321.38038 47.198669 C 321.10955 47.841895 320.97369 48.53592 320.97369 49.280713 C 320.97369 50.025505 321.10064 50.71953 321.35455 51.362756 C 321.62538 52.005989 321.98944 52.56467 322.44647 53.038623 C 322.92043 53.512583 323.47911 53.885034 324.12233 54.155868 C 324.78249 54.426701 325.4933 54.562044 326.25502 54.562044 C 326.96596 54.562044 327.6432 54.435095 328.28642 54.181189 C 328.92965 53.910356 329.49673 53.537904 329.98761 53.063944 C 330.49542 52.589992 330.89306 52.031827 331.18082 51.388595 C 331.46858 50.745369 331.61232 50.042432 331.61232 49.280713 C 331.61232 48.53592 331.46858 47.841895 331.18082 47.198669 C 330.89306 46.538517 330.50382 45.971441 330.01293 45.497481 C 329.52205 45.023522 328.95498 44.651587 328.31174 44.380754 C 327.66852 44.109921 326.98289 43.97406 326.25502 43.97406 z M 152.17676 49.712728 C 150.95801 49.712728 149.731 49.813976 148.49533 50.017102 C 147.25965 50.220229 146.06623 50.533407 144.91519 50.95658 C 143.78107 51.379759 142.71459 51.913256 141.7159 52.556482 C 140.73413 53.182788 139.87118 53.936087 139.12639 54.816292 C 138.39853 55.679571 137.82306 56.669468 137.39988 57.786654 C 136.97671 58.886913 136.76478 60.114434 136.76478 61.468599 C 136.76478 64.109223 137.40792 66.368609 138.69438 68.247514 C 139.98083 70.109492 141.90238 71.574122 144.45837 72.640527 L 154.96987 77.083667 C 155.63002 77.371427 156.17192 77.67621 156.59509 77.997823 C 157.0352 78.319436 157.38195 78.674588 157.63586 79.063908 C 157.88976 79.453234 158.06759 79.86817 158.16916 80.308276 C 158.28765 80.748376 158.34692 81.222082 158.34692 81.729895 C 158.34692 83.03328 157.8984 83.947624 157.00127 84.472363 C 156.10414 84.997103 154.73288 85.259395 152.88783 85.259395 C 152.10918 85.259395 151.23732 85.166542 150.27248 84.980343 C 149.32457 84.794143 148.35146 84.565429 147.35276 84.294596 C 146.35407 84.006837 145.37257 83.702053 144.40772 83.38044 C 143.45981 83.041901 142.61313 82.737117 141.86834 82.466284 C 141.14048 82.178524 140.54822 81.933021 140.09119 81.729895 L 139.40544 81.450842 L 137.27276 88.484005 C 138.57614 89.245717 140.01507 89.914558 141.58929 90.490084 C 142.94346 90.99789 144.52612 91.454807 146.33732 91.86106 C 148.16544 92.284239 150.16254 92.495646 152.3292 92.495646 C 157.37347 92.495646 161.19086 91.420775 163.7807 89.271037 C 166.38747 87.121299 167.69054 84.032028 167.69054 80.003385 C 167.69054 78.46302 167.47913 77.074971 167.05595 75.839299 C 166.6497 74.586693 166.04014 73.461459 165.22764 72.46276 C 164.43207 71.464068 163.45057 70.575419 162.2826 69.796773 C 161.13156 69.018127 159.81958 68.332497 158.34692 67.740051 L 148.90151 63.931498 C 148.13979 63.626812 147.55592 63.322028 147.14967 63.017342 C 146.74342 62.712656 146.44704 62.424662 146.26084 62.153829 C 146.07464 61.866069 145.965 61.603777 145.93114 61.366797 C 145.91422 61.11289 145.90531 60.884177 145.90531 60.681051 C 145.90531 59.834698 146.14242 59.166374 146.61637 58.675488 C 147.09033 58.184602 147.68311 57.812144 148.39404 57.558244 C 149.12191 57.304337 149.90879 57.143299 150.75514 57.075586 C 151.61842 57.007879 152.431 56.9743 153.19272 56.9743 C 154.08985 56.9743 154.98689 57.041969 155.88403 57.177389 C 156.78116 57.312802 157.63623 57.490636 158.44873 57.710689 C 159.26123 57.913816 160.01401 58.142012 160.70802 58.395919 C 161.41896 58.632892 162.02852 58.861612 162.53633 59.081665 C 163.04414 59.284792 163.44178 59.454225 163.72954 59.589644 L 164.18688 59.792733 L 166.52265 53.21639 L 166.06583 52.962659 C 165.74422 52.793392 165.27839 52.581462 164.66902 52.327555 C 164.07657 52.056722 163.34897 51.769245 162.48569 51.464559 C 161.63934 51.159866 160.68302 50.880274 159.61661 50.626367 C 158.55021 50.355534 157.39036 50.135726 156.13776 49.966459 C 154.88515 49.797186 153.56478 49.712728 152.17676 49.712728 z M 265.26701 50.397957 L 274.10265 91.784578 L 285.04617 91.784578 L 291.01273 60.452641 L 297.08109 91.759257 L 307.92332 91.759257 L 316.8096 50.397957 L 307.03449 50.397957 L 301.55007 79.241675 L 296.34522 50.397957 L 285.73191 50.397957 L 280.52655 79.241675 L 275.06745 50.397957 L 265.26701 50.397957 z M 36.543506 51.258887 C 35.694737 51.258887 35.0113 51.941796 35.0113 52.790576 C 35.0113 53.639358 35.694737 54.322782 36.543506 54.322782 L 101.10752 54.322782 C 101.95631 54.322782 102.63973 53.639358 102.63973 52.790576 C 102.63973 51.941796 101.95631 51.258887 101.10752 51.258887 L 36.543506 51.258887 z M 35.516695 57.634725 C 34.247176 57.634725 33.224845 58.656533 33.224845 59.926058 C 33.224845 61.195582 34.247176 62.217908 35.516695 62.217908 L 37.259224 62.217908 L 37.259224 95.877352 L 35.516695 95.877352 C 34.247176 95.877352 33.224845 96.899156 33.224845 98.168685 C 33.224845 99.43821 34.247176 100.46053 35.516695 100.46053 L 49.869307 100.46053 C 51.138826 100.46053 52.161157 99.43821 52.161157 98.168685 C 52.161157 96.899156 51.138826 95.877352 49.869307 95.877352 L 48.126778 95.877352 L 48.126778 62.217908 L 49.869307 62.217908 C 51.138826 62.217908 52.161157 61.195582 52.161157 59.926058 C 52.161157 58.656533 51.138826 57.634725 49.869307 57.634725 L 35.516695 57.634725 z M 61.64895 57.634725 C 60.379421 57.634725 59.3571 58.656533 59.3571 59.926058 C 59.3571 61.195582 60.379421 62.217908 61.64895 62.217908 L 63.391996 62.217908 L 63.391996 95.877352 L 61.64895 95.877352 C 60.379421 95.877352 59.3571 96.899156 59.3571 98.168685 C 59.3571 99.43821 60.379421 100.46053 61.64895 100.46053 L 76.002079 100.46053 C 77.271618 100.46053 78.293929 99.43821 78.293929 98.168685 C 78.293929 96.899156 77.271618 95.877352 76.002079 95.877352 L 74.259033 95.877352 L 74.259033 62.217908 L 76.002079 62.217908 C 77.271618 62.217908 78.293929 61.195582 78.293929 59.926058 C 78.293929 58.656533 77.271618 57.634725 76.002079 57.634725 L 61.64895 57.634725 z M 87.781722 57.634725 C 86.512193 57.634725 85.489355 58.656533 85.489355 59.926058 C 85.489355 61.195582 86.512193 62.217908 87.781722 62.217908 L 89.524251 62.217908 L 89.524251 95.877352 L 87.781722 95.877352 C 86.512193 95.877352 85.489355 96.899156 85.489355 98.168685 C 85.489355 99.43821 86.512193 100.46053 87.781722 100.46053 L 102.13433 100.46053 C 103.40386 100.46053 104.42618 99.43821 104.42618 98.168685 C 104.42618 96.899156 103.40386 95.877352 102.13433 95.877352 L 100.39181 95.877352 L 100.39181 62.217908 L 102.13433 62.217908 C 103.40386 62.217908 104.42618 61.195582 104.42618 59.926058 C 104.42618 58.656533 103.40386 57.634725 102.13433 57.634725 L 87.781722 57.634725 z M 185.51477 60.401998 C 183.00957 60.401998 180.71609 60.655902 178.63406 61.163708 C 176.56896 61.654595 174.74918 62.391104 173.17496 63.372876 L 175.40945 69.035063 C 176.98367 68.307197 178.54115 67.748516 180.08151 67.359196 C 181.6388 66.96987 183.33951 66.775252 185.18456 66.775252 C 186.0817 66.775252 186.78463 66.96987 187.29244 67.359196 C 187.80026 67.731589 188.17219 68.21369 188.40917 68.806136 C 188.66308 69.398582 188.81573 70.050633 188.86651 70.761572 C 188.93422 71.472512 188.96779 72.166536 188.96779 72.843616 C 188.45998 72.758996 187.95218 72.699715 187.44437 72.665849 C 186.95349 72.631982 186.463 72.614689 185.97211 72.614689 C 183.60232 72.614689 181.50294 72.809313 179.67482 73.198633 C 177.8467 73.571026 176.30652 74.155408 175.05391 74.950981 C 173.80131 75.729627 172.84499 76.728428 172.18484 77.94718 C 171.54161 79.148999 171.22004 80.587417 171.22004 82.263196 C 171.22004 83.922047 171.46554 85.38616 171.95643 86.655693 C 172.44731 87.925225 173.14973 88.991701 174.06379 89.85498 C 174.99478 90.71826 176.12054 91.37031 177.44085 91.810417 C 178.76116 92.250516 180.25885 92.470325 181.93463 92.470325 C 182.86562 92.470325 183.7039 92.38586 184.44869 92.216593 C 185.21041 92.04732 185.90443 91.776116 186.53073 91.403723 C 187.15703 91.031324 187.7325 90.566019 188.25724 90.007426 C 188.78198 89.431907 189.28139 88.737882 189.75534 87.925382 L 191.04984 91.784578 L 198.48969 91.784578 L 198.48969 73.986182 C 198.48969 71.785664 198.23579 69.838933 197.72798 68.146228 C 197.2371 66.453516 196.46649 65.031377 195.41701 63.880339 C 194.36753 62.7293 193.02198 61.866352 191.38005 61.290833 C 189.75505 60.698386 187.79993 60.401998 185.51477 60.401998 z M 249.8292 60.401998 C 247.35784 60.401998 245.17452 60.782851 243.27869 61.544564 C 241.38286 62.289356 239.78288 63.389412 238.4795 64.845138 C 237.19304 66.283943 236.21154 68.078534 235.53446 70.228271 C 234.87431 72.361083 234.54434 74.807214 234.54434 77.566325 C 234.54434 79.936116 234.93358 82.05177 235.71223 83.913741 C 236.49087 85.758793 237.58253 87.316275 238.98748 88.585807 C 240.39243 89.855339 242.08526 90.820052 244.06572 91.480204 C 246.04619 92.140357 248.24682 92.470325 250.66739 92.470325 C 252.51244 92.470325 254.26403 92.267306 255.92288 91.86106 C 257.58173 91.47174 259.24938 90.86218 260.92516 90.032747 L 259.17333 83.634688 C 258.05614 84.447188 256.86271 85.047843 255.59318 85.437162 C 254.34058 85.826489 252.95253 86.021106 251.4291 86.021106 C 250.36269 86.021106 249.39746 85.843278 248.53418 85.487805 C 247.68783 85.132339 246.96023 84.641843 246.35085 84.015544 C 245.75841 83.372311 245.2931 82.610101 244.95456 81.729895 C 244.63294 80.832763 244.45511 79.851261 244.42126 78.784855 L 262.4739 78.784855 C 262.45697 78.040063 262.44858 77.303554 262.44858 76.575688 L 262.44858 74.367037 C 262.44858 72.335786 262.16898 70.465125 261.61039 68.755493 C 261.06872 67.045862 260.26505 65.573354 259.19865 64.337675 C 258.13224 63.102003 256.81187 62.137291 255.23765 61.443278 C 253.68036 60.749272 251.87737 60.401998 249.8292 60.401998 z M 349.53835 60.401998 C 347.57482 60.401998 345.8227 60.613412 344.28234 61.036584 C 342.74198 61.442837 341.43891 62.02722 340.37251 62.788932 C 339.3061 63.550652 338.48513 64.472873 337.90961 65.556205 C 337.35101 66.639537 337.07142 67.841358 337.07142 69.16167 C 337.07142 70.634328 337.24925 71.86185 337.60472 72.843616 C 337.97711 73.808461 338.46811 74.620524 339.07749 75.280676 C 339.68687 75.940836 340.38929 76.482727 341.18486 76.9059 C 341.98043 77.32908 342.8182 77.718321 343.6984 78.073787 L 349.84325 80.587329 C 350.74038 80.959729 351.40031 81.340575 351.82349 81.729895 C 352.24667 82.102288 352.45807 82.466345 352.45807 82.821818 C 352.45807 83.380411 352.40771 83.863029 352.30614 84.269275 C 352.22151 84.675528 352.04368 85.013884 351.77284 85.284717 C 351.50201 85.538623 351.11277 85.724852 350.60496 85.843339 C 350.09714 85.961832 349.4283 86.021106 348.59888 86.021106 C 347.97258 86.021106 347.29534 85.961832 346.56748 85.843339 C 345.85654 85.724852 345.13733 85.572719 344.40947 85.386519 C 343.69853 85.20032 343.0129 85.005695 342.35275 84.802576 C 341.69259 84.599449 341.10873 84.404832 340.60092 84.218632 C 340.09311 84.032432 339.67817 83.888177 339.35655 83.786617 C 339.05187 83.66813 338.88295 83.60885 338.84908 83.60885 L 337.12257 89.804338 C 337.08872 89.787411 337.20676 89.846691 337.47759 89.982104 C 337.76535 90.100598 338.1635 90.261636 338.67132 90.464762 C 339.19606 90.650956 339.82241 90.862369 340.55027 91.099349 C 341.27814 91.336329 342.08181 91.556131 342.96201 91.759257 C 343.84222 91.962377 344.78175 92.131816 345.78044 92.267236 C 346.77914 92.40265 347.81152 92.470325 348.87793 92.470325 C 350.40136 92.470325 351.90797 92.309797 353.39755 91.988184 C 354.88713 91.683497 356.22429 91.158395 357.40919 90.413603 C 358.59408 89.65189 359.55092 88.644687 360.27878 87.392082 C 361.02358 86.12255 361.39551 84.531488 361.39551 82.61873 C 361.39551 81.552324 361.2182 80.587612 360.86273 79.724333 C 360.52419 78.844127 360.00799 78.039943 359.31399 77.312077 C 358.6369 76.584211 357.79023 75.915887 356.77461 75.306514 C 355.77591 74.697142 354.60818 74.138461 353.27094 73.630648 L 347.91313 71.573926 C 347.48996 71.404653 347.13481 71.252519 346.84705 71.117106 C 346.57621 70.981686 346.35589 70.837431 346.18662 70.685091 C 346.03428 70.515818 345.92464 70.329595 345.85693 70.126469 C 345.78922 69.923349 345.75512 69.677839 345.75512 69.39008 C 345.75512 68.949974 345.8144 68.569127 345.93289 68.247514 C 346.05138 67.908974 346.26279 67.638287 346.56748 67.43516 C 346.87216 67.215107 347.27871 67.054579 347.78652 66.953019 C 348.31126 66.834526 348.97119 66.775252 349.76676 66.775252 C 350.34228 66.775252 350.96863 66.825614 351.64572 66.927181 C 352.3228 67.028741 353.00003 67.15569 353.67712 67.308036 C 354.3542 67.460376 355.01413 67.629816 355.65736 67.816016 C 356.30059 67.985282 356.87606 68.146327 357.38387 68.298674 C 357.89168 68.45102 358.29823 68.577969 358.60292 68.679529 C 358.92451 68.781089 359.11074 68.831458 359.16154 68.831458 L 359.16154 68.806136 L 360.88805 62.737773 C 360.90498 62.754699 360.76963 62.712725 360.48187 62.611165 C 360.19411 62.492679 359.78756 62.348424 359.26283 62.17915 C 358.73809 62.009877 358.11173 61.823648 357.38387 61.620528 C 356.67293 61.400475 355.88605 61.205858 355.02277 61.036584 C 354.17642 60.850385 353.28778 60.698251 352.35679 60.579765 C 351.4258 60.461278 350.48627 60.401998 349.53835 60.401998 z M 380.64188 60.401998 C 378.17053 60.401998 375.98669 60.782851 374.09086 61.544564 C 372.19503 62.289356 370.59557 63.389412 369.29219 64.845138 C 368.00573 66.283943 367.02423 68.078534 366.34715 70.228271 C 365.68699 72.361083 365.35651 74.807214 365.35651 77.566325 C 365.35651 79.936116 365.74627 82.05177 366.52491 83.913741 C 367.30356 85.758793 368.39522 87.316275 369.80017 88.585807 C 371.20512 89.855339 372.89795 90.820052 374.87841 91.480204 C 376.85887 92.140357 379.05899 92.470325 381.47956 92.470325 C 383.32461 92.470325 385.07672 92.267306 386.73557 91.86106 C 388.39442 91.47174 390.06155 90.86218 391.73733 90.032747 L 389.9855 83.634688 C 388.86831 84.447188 387.67489 85.047843 386.40535 85.437162 C 385.15276 85.826489 383.76471 86.021106 382.24127 86.021106 C 381.17486 86.021106 380.21015 85.843278 379.34687 85.487805 C 378.50052 85.132339 377.77292 84.641843 377.16354 84.015544 C 376.5711 83.372311 376.10527 82.610101 375.76673 81.729895 C 375.44513 80.832763 375.26729 79.851261 375.23343 78.784855 L 393.28659 78.784855 C 393.26966 78.040063 393.26075 77.303554 393.26075 76.575688 L 393.26075 74.367037 C 393.26075 72.335786 392.98167 70.465125 392.42308 68.755493 C 391.88141 67.045862 391.07723 65.573354 390.01082 64.337675 C 388.94441 63.102003 387.62404 62.137291 386.04982 61.443278 C 384.49254 60.749272 382.69006 60.401998 380.64188 60.401998 z M 201.89207 61.366797 L 211.4641 91.784578 L 223.19465 91.784578 L 232.84315 61.366797 L 222.6107 61.366797 L 217.35469 83.634688 L 211.9974 61.366797 L 201.89207 61.366797 z M 321.48167 61.366797 L 321.48167 91.784578 L 331.05421 91.784578 L 331.05421 61.366797 L 321.48167 61.366797 z M 43.384432 64.788293 C 44.233211 64.788293 44.917155 65.471724 44.917155 66.3205 L 44.917155 91.541699 C 44.917155 92.390478 44.233211 93.074422 43.384432 93.074422 C 42.535663 93.074422 41.852743 92.390478 41.852743 91.541699 L 41.852743 66.3205 C 41.852743 65.471724 42.535663 64.788293 43.384432 64.788293 z M 69.517204 64.788293 C 70.365983 64.788293 71.04941 65.471724 71.04941 66.3205 L 71.04941 91.541699 C 71.04941 92.390478 70.365983 93.074422 69.517204 93.074422 C 68.668415 93.074422 67.984998 92.390478 67.984998 91.541699 L 67.984998 66.3205 C 67.984998 65.471724 68.668415 64.788293 69.517204 64.788293 z M 95.649459 64.788293 C 96.498238 64.788293 97.181665 65.471724 97.181665 66.3205 L 97.181665 91.541699 C 97.181665 92.390478 96.498238 93.074422 95.649459 93.074422 C 94.80069 93.074422 94.117769 92.390478 94.117769 91.541699 L 94.117769 66.3205 C 94.117769 65.471724 94.80069 64.788293 95.649459 64.788293 z M 249.60079 66.775252 C 251.3612 66.842959 252.64748 67.460397 253.45998 68.628369 C 254.28042 69.783678 254.69184 71.607182 254.70073 74.087467 L 254.70435 74.087467 L 254.70435 74.163949 C 254.70435 74.136618 254.70083 74.114639 254.70073 74.087467 L 244.39594 74.087467 C 244.39594 73.122628 244.48879 72.208802 244.67499 71.345516 C 244.87811 70.482237 245.19129 69.728932 245.61447 69.085706 C 246.03764 68.425546 246.57953 67.892049 247.23969 67.485803 C 247.89985 67.07955 248.68672 66.842959 249.60079 66.775252 z M 380.41347 66.775252 C 382.17389 66.842959 383.46017 67.460397 384.27267 68.628369 C 385.09311 69.783679 385.50453 71.607181 385.51342 74.087467 L 385.51704 74.087467 L 385.51704 74.163949 C 385.51704 74.136619 385.51352 74.114638 385.51342 74.087467 L 375.20811 74.087467 C 375.20811 73.122628 375.30148 72.208802 375.48767 71.345516 C 375.6908 70.482237 376.00397 69.728932 376.42715 69.085706 C 376.85033 68.425546 377.3917 67.892049 378.05186 67.485803 C 378.71201 67.07955 379.49941 66.842959 380.41347 66.775252 z M 186.80979 77.565808 C 186.87749 77.565808 187.1146 77.583101 187.52085 77.616968 C 187.9271 77.650808 188.4092 77.684387 188.96779 77.718254 L 188.96779 83.558207 C 187.74905 85.200132 186.24296 86.021106 184.44869 86.021106 C 183.26379 86.021106 182.35784 85.615075 181.73154 84.802576 C 181.12217 83.97315 180.81739 82.855794 180.81739 81.450842 C 180.81739 80.84147 180.90236 80.299578 181.07163 79.825618 C 181.24091 79.334739 181.54569 78.928708 181.98579 78.607088 C 182.42589 78.268549 183.03494 78.014651 183.81359 77.845378 C 184.59223 77.659184 185.59104 77.565808 186.80979 77.565808 z M 323.28311 100.04351 C 321.23233 100.04351 319.56559 100.73499 318.28238 102.1178 C 316.99918 103.50061 316.35743 105.24102 316.35743 107.33867 C 316.35743 109.33671 316.94067 110.96543 318.10668 112.22519 C 319.27855 113.48496 320.8195 114.115 322.72965 114.115 C 324.22965 114.115 325.48045 113.84533 326.4824 113.30626 L 326.4824 111.84744 C 325.47459 112.45681 324.28523 112.76159 322.91414 112.76159 C 321.39656 112.76159 320.18673 112.24857 319.28439 111.22319 C 318.38204 110.19779 317.93098 108.87386 317.93098 107.25082 C 317.93098 105.53988 318.4113 104.13936 319.37224 103.04952 C 320.33903 101.95968 321.63078 101.415 323.24797 101.415 C 324.42571 101.415 325.50389 101.68415 326.4824 102.22322 L 326.4824 100.60626 C 325.63864 100.23126 324.57217 100.04351 323.28311 100.04351 z M 183.03637 100.27243 L 183.03637 113.88659 L 190.03233 113.88659 L 190.03233 112.51561 L 184.53034 112.51561 L 184.53034 100.27243 L 183.03637 100.27243 z M 202.71631 100.27243 L 202.71631 113.88659 L 204.21027 113.88659 L 204.21027 100.27243 L 202.71631 100.27243 z M 216.78883 100.27243 L 221.74564 113.88659 L 223.38947 113.88659 L 228.45169 100.27243 L 226.83473 100.27243 L 222.91456 111.13534 C 222.75049 111.57479 222.6481 111.97903 222.60708 112.34818 L 222.56316 112.34818 C 222.49871 111.88529 222.40801 111.48689 222.29082 111.15291 L 218.4585 100.27243 L 216.78883 100.27243 z M 241.01268 100.27243 L 241.01268 113.88659 L 248.16676 113.88659 L 248.16676 112.51561 L 242.50664 112.51561 L 242.50664 107.64614 L 247.45518 107.64614 L 247.45518 106.27517 L 242.50664 106.27517 L 242.50664 101.64341 L 247.85929 101.64341 L 247.85929 100.27243 L 241.01268 100.27243 z M 276.47925 100.27243 L 276.47925 113.88659 L 277.982 113.88659 L 277.982 103.90219 C 277.982 102.96469 277.95859 102.35513 277.91172 102.07387 L 277.96443 102.07387 C 278.08748 102.36099 278.22791 102.63359 278.38611 102.89139 L 285.488 113.88659 L 287.36851 113.88659 L 287.36851 100.27243 L 285.86576 100.27243 L 285.86576 110.03669 C 285.86576 110.95076 285.89794 111.63347 285.96239 112.08463 L 285.92725 112.08463 C 285.90967 112.02604 285.72536 111.7154 285.3738 111.15291 L 278.46517 100.27243 L 276.47925 100.27243 z M 301.55575 100.27243 L 301.55575 113.88659 L 303.04972 113.88659 L 303.04972 100.27243 L 301.55575 100.27243 z M 339.86091 100.27243 L 339.86091 113.88659 L 347.01499 113.88659 L 347.01499 112.51561 L 341.35487 112.51561 L 341.35487 107.64614 L 346.30289 107.64614 L 346.30289 106.27517 L 341.35487 106.27517 L 341.35487 101.64341 L 346.70752 101.64341 L 346.70752 100.27243 L 339.86091 100.27243 z M 27.910958 103.75801 C 26.427369 103.75801 25.233085 104.9523 25.233085 106.43588 C 25.233085 107.91947 26.427369 109.11375 27.910958 109.11375 L 109.73955 109.11375 C 111.22314 109.11375 112.41794 107.91947 112.41794 106.43588 C 112.41794 104.9523 111.22314 103.75801 109.73955 103.75801 L 27.910958 103.75801 z M 20.195667 112.36833 C 18.331197 112.36833 16.82998 113.86955 16.82998 115.73402 C 16.82998 117.59849 18.331197 119.09919 20.195667 119.09919 L 117.45536 119.09919 C 119.31984 119.09919 120.82053 117.59849 120.82053 115.73402 C 120.82053 113.86955 119.31984 112.36833 117.45536 112.36833 L 20.195667 112.36833 z "
     inkscape:label="rect2" />
</svg>
