<?xml version="1.0" encoding="UTF-8" standalone="no"?>
<!-- Created with Inkscape (http://www.inkscape.org/) -->

<svg
   width="1536"
   height="512"
   viewBox="0 0 406.39999 135.46667"
   version="1.1"
   id="svg1"
   inkscape:version="1.3.2 (091e20e, 2023-11-25, custom)"
   sodipodi:docname="logo-horizontal.svg"
   inkscape:export-filename="logo-horizontal.png"
   inkscape:export-xdpi="96"
   inkscape:export-ydpi="96"
   xmlns:inkscape="http://www.inkscape.org/namespaces/inkscape"
   xmlns:sodipodi="http://sodipodi.sourceforge.net/DTD/sodipodi-0.dtd"
   xmlns="http://www.w3.org/2000/svg"
   xmlns:svg="http://www.w3.org/2000/svg">
  <defs
     id="defs1" />
  <sodipodi:namedview
     id="namedview1"
     pagecolor="#1e2438"
     bordercolor="#000000"
     borderopacity="0.25"
     inkscape:showpageshadow="2"
     inkscape:pageopacity="0.0"
     inkscape:pagecheckerboard="0"
     inkscape:deskcolor="#d1d1d1"
     inkscape:document-units="px"
     showguides="true"
     inkscape:zoom="0.51213161"
     inkscape:cx="627.76832"
     inkscape:cy="159.13878"
     inkscape:window-width="1920"
     inkscape:window-height="1009"
     inkscape:window-x="-8"
     inkscape:window-y="-8"
     inkscape:window-maximized="1"
     inkscape:current-layer="layer1">
    <sodipodi:guide
       position="-33.581049,56.422044"
       orientation="0,1"
       id="guide1"
       inkscape:locked="false"
       inkscape:label=""
       inkscape:color="rgb(0,134,229)" />
  </sodipodi:namedview>
  <g
     inkscape:label="Warstwa 1"
     inkscape:groupmode="layer"
     id="layer1">
    <path
       id="rect2"
       style="display:inline;fill:#fff5d8;fill-opacity:1;fill-rule:evenodd;stroke-width:4.44004;stroke-linejoin:round;paint-order:stroke fill markers"
       d="m 68.825507,16.367311 c -0.70654,0 -1.12709,0.223733 -1.43937,0.442054 l -43.45599,30.381913 c -0.79746,0.557529 -0.99054,1.648263 -0.43301,2.445722 l 2.1758,3.112469 c 0.55753,0.797458 1.64875,0.990783 2.44621,0.433253 l 37.8357,-26.452573 a 5.0097283,5.0097283 0 0 1 5.74107,0 l 37.835953,26.452573 c 0.79746,0.55753 1.88843,0.364202 2.44597,-0.433253 L 114.15387,49.637 c 0.55754,-0.797457 0.36421,-1.888193 -0.43324,-2.445722 L 70.264877,16.809365 c -0.43763,-0.305951 -0.86618,-0.442054 -1.43937,-0.442054 z m -0.14695,13.735698 c -0.1584,0.0031 -0.31772,0.01124 -0.47653,0.0247 -0.83113,0.07034 -1.54821,0.277783 -1.9731,0.570904 l -12.65404,8.731051 -11.74327,8.102691 a 0.34470068,0.34470068 0 0 0 0.19559,0.628362 h 12.84597 13.95233 13.95232 13.95233 l -12.65404,-8.731052 -12.65428,-8.731053 c -0.56827,-0.39207 -1.6345,-0.61744 -2.74328,-0.5956 z M 36.543337,51.25876 c -0.84877,0 -1.53226,0.683247 -1.53226,1.532028 0,0.848783 0.68349,1.53203 1.53226,1.53203 h 64.564323 c 0.84879,0 1.53203,-0.683247 1.53203,-1.53203 0,-0.848781 -0.68324,-1.532028 -1.53203,-1.532028 z m -1.02689,6.376035 c -1.26952,0 -2.29168,1.021669 -2.29168,2.291195 0,1.269525 1.02216,2.29169 2.29168,2.29169 h 1.74279 v 33.65966 h -1.74279 c -1.26952,0 -2.29168,1.02168 -2.29168,2.29121 0,1.269526 1.02216,2.29193 2.29168,2.29193 h 14.35307 c 1.26952,0 2.29169,-1.022404 2.29169,-2.29193 0,-1.26953 -1.02217,-2.29121 -2.29169,-2.29121 h -1.7428 V 62.21768 h 1.7428 c 1.26952,0 2.29169,-1.022165 2.29169,-2.29169 0,-1.269526 -1.02217,-2.291195 -2.29169,-2.291195 z m 26.13253,0 c -1.26953,0 -2.29168,1.021669 -2.29168,2.291195 0,1.269525 1.02215,2.29169 2.29168,2.29169 h 1.74278 v 33.65966 h -1.74278 c -1.26953,0 -2.29168,1.02168 -2.29168,2.29121 0,1.269526 1.02215,2.29193 2.29168,2.29193 h 14.35305 c 1.26954,0 2.29169,-1.022404 2.29169,-2.29193 0,-1.26953 -1.02215,-2.29121 -2.29169,-2.29121 h -1.74278 V 62.21768 h 1.74278 c 1.26954,0 2.29169,-1.022165 2.29169,-2.29169 0,-1.269526 -1.02215,-2.291195 -2.29169,-2.291195 z m 26.13252,0 c -1.26953,0 -2.29194,1.021669 -2.29194,2.291195 0,1.269525 1.02241,2.29169 2.29194,2.29169 h 1.74278 v 33.65966 h -1.74278 c -1.26953,0 -2.29194,1.02168 -2.29194,2.29121 0,1.269526 1.02241,2.29193 2.29194,2.29193 h 14.353063 c 1.26953,0 2.29169,-1.022404 2.29169,-2.29193 0,-1.26953 -1.02216,-2.29121 -2.29169,-2.29121 h -1.74278 V 62.21768 h 1.74278 c 1.26953,0 2.29169,-1.022165 2.29169,-2.29169 0,-1.269526 -1.02216,-2.291195 -2.29169,-2.291195 z m -44.39708,7.153548 c 0.84878,0 1.53253,0.6835 1.53253,1.532277 V 91.5419 c 0,0.84878 -0.68375,1.53228 -1.53253,1.53228 -0.84877,0 -1.53178,-0.6835 -1.53178,-1.53228 V 66.32062 c 0,-0.848777 0.68301,-1.532277 1.53178,-1.532277 z m 26.13253,0 c 0.84878,0 1.53228,0.6835 1.53228,1.532277 V 91.5419 c 0,0.84878 -0.6835,1.53228 -1.53228,1.53228 -0.84879,0 -1.53178,-0.6835 -1.53178,-1.53228 V 66.32062 c 0,-0.848777 0.68299,-1.532277 1.53178,-1.532277 z m 26.13252,0 c 0.84878,0 1.53227,0.6835 1.53227,1.532277 V 91.5419 c 0,0.84878 -0.68349,1.53228 -1.53227,1.53228 -0.84877,0 -1.53179,-0.6835 -1.53179,-1.53228 V 66.32062 c 0,-0.848777 0.68302,-1.532277 1.53179,-1.532277 z m -67.73839,38.969447 c -1.48359,0 -2.678,1.19441 -2.678,2.67799 0,1.48359 1.19441,2.67799 2.678,2.67799 h 81.828613 c 1.48359,0 2.678,-1.1944 2.678,-2.67799 0,-1.48358 -1.19441,-2.67799 -2.678,-2.67799 z m -7.71541,8.61075 c -1.864471,0 -3.365525,1.50082 -3.365525,3.36529 0,1.86447 1.501054,3.36553 3.365525,3.36553 h 97.259673 c 1.86448,0 3.36527,-1.50106 3.36527,-3.36553 0,-1.86447 -1.50079,-3.36529 -3.36527,-3.36529 z" />
    <g
       id="g1"
       transform="translate(204.06725,-83.036402)"
       style="fill:#fff5d8;fill-opacity:1">
      <text
         xml:space="preserve"
         style="font-size:52px;line-height:0;font-family:'LEMON MILK';-inkscape-font-specification:'LEMON MILK';text-align:end;letter-spacing:0px;text-anchor:end;display:inline;fill:#fff5d8;fill-rule:evenodd;stroke-width:5.29167;stroke-linejoin:round;paint-order:stroke fill markers;fill-opacity:1"
         x="191.27577"
         y="174.82123"
         id="text1"><tspan
           sodipodi:role="line"
           id="tspan1"
           style="font-style:normal;font-variant:normal;font-weight:bold;font-stretch:normal;font-size:52px;font-family:Nobile;-inkscape-font-specification:'Nobile Bold';stroke-width:5.29167;fill:#fff5d8;fill-opacity:1"
           x="191.27577"
           y="174.82123">SaveWise</tspan></text>
    </g>
  </g>
</svg>
