<?xml version="1.0" encoding="UTF-8" standalone="no"?>
<!-- Created with Inkscape (http://www.inkscape.org/) -->

<svg
   width="1024"
   height="1024"
   viewBox="0 0 270.93333 270.93333"
   version="1.1"
   id="svg1"
   xml:space="preserve"
   inkscape:version="1.3.2 (091e20e, 2023-11-25, custom)"
   sodipodi:docname="logo-tagline.svg"
   xmlns:inkscape="http://www.inkscape.org/namespaces/inkscape"
   xmlns:sodipodi="http://sodipodi.sourceforge.net/DTD/sodipodi-0.dtd"
   xmlns="http://www.w3.org/2000/svg"
   xmlns:svg="http://www.w3.org/2000/svg"><sodipodi:namedview
     id="namedview1"
     pagecolor="#ffffff"
     bordercolor="#000000"
     borderopacity="0.25"
     inkscape:showpageshadow="2"
     inkscape:pageopacity="0.0"
     inkscape:pagecheckerboard="0"
     inkscape:deskcolor="#d1d1d1"
     inkscape:document-units="px"
     showguides="true"
     inkscape:zoom="0.32"
     inkscape:cx="410.9375"
     inkscape:cy="989.0625"
     inkscape:window-width="1920"
     inkscape:window-height="1009"
     inkscape:window-x="-8"
     inkscape:window-y="-8"
     inkscape:window-maximized="1"
     inkscape:current-layer="layer1"><sodipodi:guide
       position="135.46667,319.4285"
       orientation="-1,0"
       id="guide1"
       inkscape:locked="false"
       inkscape:label=""
       inkscape:color="rgb(0,134,229)" /></sodipodi:namedview><defs
     id="defs1" /><g
     inkscape:label="Warstwa 1"
     inkscape:groupmode="layer"
     id="layer1"><text
       xml:space="preserve"
       style="font-style:normal;font-variant:normal;font-weight:bold;font-stretch:normal;font-size:18px;line-height:0;font-family:Nobile;-inkscape-font-specification:'Nobile Bold';text-align:end;letter-spacing:10.5833px;text-anchor:end;display:inline;fill:#000000;fill-rule:evenodd;stroke-width:5.29167;stroke-linejoin:round;paint-order:stroke fill markers"
       x="218.29987"
       y="215.80078"
       id="text2"
       inkscape:label="tagline"><tspan
         sodipodi:role="line"
         id="tspan2"
         style="font-style:normal;font-variant:normal;font-weight:normal;font-stretch:normal;font-size:18px;font-family:'Microsoft JhengHei';-inkscape-font-specification:'Microsoft JhengHei';letter-spacing:10.5833px;stroke-width:5.29167"
         x="0"
         y="0">LIVE NICE</tspan></text><text
       xml:space="preserve"
       style="font-size:52px;line-height:0;font-family:'LEMON MILK';-inkscape-font-specification:'LEMON MILK';text-align:end;letter-spacing:0px;text-anchor:end;display:inline;fill:#000000;fill-rule:evenodd;stroke-width:5.29167;stroke-linejoin:round;paint-order:stroke fill markers"
       x="265.78406"
       y="193.69916"
       id="text1"
       inkscape:label="logotyp"><tspan
         sodipodi:role="line"
         id="tspan1"
         style="font-style:normal;font-variant:normal;font-weight:bold;font-stretch:normal;font-size:52px;font-family:Nobile;-inkscape-font-specification:'Nobile Bold';stroke-width:5.29167"
         x="0"
         y="0">SaveWise</tspan></text><path
       id="rect2"
       style="display:inline;fill:#000000;fill-opacity:1;fill-rule:evenodd;stroke-width:4.44004;stroke-linejoin:round;paint-order:stroke fill markers"
       d="m 135.46658,31.991601 c -0.70654,0 -1.12709,0.223733 -1.43937,0.442054 L 90.571215,62.815568 c -0.797457,0.557529 -0.99054,1.648263 -0.43301,2.445722 l 2.175797,3.112469 c 0.55753,0.797458 1.648753,0.990783 2.44621,0.433253 L 132.59592,42.354439 a 5.0097283,5.0097283 0 0 1 5.74107,0 l 37.83595,26.452573 c 0.79746,0.55753 1.88843,0.364202 2.44597,-0.433253 l 2.17603,-3.112469 c 0.55754,-0.797457 0.36421,-1.888193 -0.43324,-2.445722 L 136.90595,32.433655 c -0.43763,-0.305951 -0.86618,-0.442054 -1.43937,-0.442054 z m -0.14695,13.735698 c -0.1584,0.0031 -0.31772,0.01124 -0.47653,0.0247 -0.83113,0.07034 -1.54821,0.277783 -1.9731,0.570904 l -12.65404,8.731051 -11.74327,8.102691 a 0.34470068,0.34470068 0 0 0 0.19559,0.628362 h 12.84597 13.95233 13.95232 13.95233 l -12.65404,-8.731052 -12.65428,-8.731053 c -0.56827,-0.39207 -1.6345,-0.61744 -2.74328,-0.5956 z M 103.18441,66.88305 c -0.84877,0 -1.53226,0.683247 -1.53226,1.532028 0,0.848783 0.68349,1.53203 1.53226,1.53203 h 64.56432 c 0.84879,0 1.53203,-0.683247 1.53203,-1.53203 0,-0.848781 -0.68324,-1.532028 -1.53203,-1.532028 z m -1.02689,6.376035 c -1.26952,0 -2.291688,1.021669 -2.291688,2.291195 0,1.269525 1.022168,2.29169 2.291688,2.29169 h 1.74279 v 33.65966 h -1.74279 c -1.26952,0 -2.291688,1.02168 -2.291688,2.29121 0,1.26953 1.022168,2.29193 2.291688,2.29193 h 14.35307 c 1.26952,0 2.29169,-1.0224 2.29169,-2.29193 0,-1.26953 -1.02217,-2.29121 -2.29169,-2.29121 h -1.7428 V 77.84197 h 1.7428 c 1.26952,0 2.29169,-1.022165 2.29169,-2.29169 0,-1.269526 -1.02217,-2.291195 -2.29169,-2.291195 z m 26.13253,0 c -1.26953,0 -2.29168,1.021669 -2.29168,2.291195 0,1.269525 1.02215,2.29169 2.29168,2.29169 h 1.74278 v 33.65966 h -1.74278 c -1.26953,0 -2.29168,1.02168 -2.29168,2.29121 0,1.26953 1.02215,2.29193 2.29168,2.29193 h 14.35305 c 1.26954,0 2.29169,-1.0224 2.29169,-2.29193 0,-1.26953 -1.02215,-2.29121 -2.29169,-2.29121 h -1.74278 V 77.84197 h 1.74278 c 1.26954,0 2.29169,-1.022165 2.29169,-2.29169 0,-1.269526 -1.02215,-2.291195 -2.29169,-2.291195 z m 26.13252,0 c -1.26953,0 -2.29194,1.021669 -2.29194,2.291195 0,1.269525 1.02241,2.29169 2.29194,2.29169 h 1.74278 v 33.65966 h -1.74278 c -1.26953,0 -2.29194,1.02168 -2.29194,2.29121 0,1.26953 1.02241,2.29193 2.29194,2.29193 h 14.35306 c 1.26953,0 2.29169,-1.0224 2.29169,-2.29193 0,-1.26953 -1.02216,-2.29121 -2.29169,-2.29121 h -1.74278 V 77.84197 h 1.74278 c 1.26953,0 2.29169,-1.022165 2.29169,-2.29169 0,-1.269526 -1.02216,-2.291195 -2.29169,-2.291195 z m -44.39708,7.153548 c 0.84878,0 1.53253,0.6835 1.53253,1.532277 v 25.22128 c 0,0.84878 -0.68375,1.53228 -1.53253,1.53228 -0.84877,0 -1.53178,-0.6835 -1.53178,-1.53228 V 81.94491 c 0,-0.848777 0.68301,-1.532277 1.53178,-1.532277 z m 26.13253,0 c 0.84878,0 1.53228,0.6835 1.53228,1.532277 v 25.22128 c 0,0.84878 -0.6835,1.53228 -1.53228,1.53228 -0.84879,0 -1.53178,-0.6835 -1.53178,-1.53228 V 81.94491 c 0,-0.848777 0.68299,-1.532277 1.53178,-1.532277 z m 26.13252,0 c 0.84878,0 1.53227,0.6835 1.53227,1.532277 v 25.22128 c 0,0.84878 -0.68349,1.53228 -1.53227,1.53228 -0.84877,0 -1.53179,-0.6835 -1.53179,-1.53228 V 81.94491 c 0,-0.848777 0.68302,-1.532277 1.53179,-1.532277 z M 94.552143,119.38208 c -1.483589,0 -2.677995,1.19441 -2.677995,2.67799 0,1.48359 1.194406,2.67799 2.677995,2.67799 h 81.828617 c 1.48359,0 2.678,-1.1944 2.678,-2.67799 0,-1.48358 -1.19441,-2.67799 -2.678,-2.67799 z m -7.715404,8.61075 c -1.864474,0 -3.365527,1.50082 -3.365527,3.36529 0,1.86447 1.501053,3.36553 3.365527,3.36553 h 97.259671 c 1.86448,0 3.36527,-1.50106 3.36527,-3.36553 0,-1.86447 -1.50079,-3.36529 -3.36527,-3.36529 z"
       inkscape:label="sygnet" /></g></svg>
