<?xml version="1.0" encoding="UTF-8" standalone="no"?>
<!-- Created with Inkscape (http://www.inkscape.org/) -->

<svg
   width="1024"
   height="1024"
   viewBox="0 0 1024 1024"
   version="1.1"
   id="svg1"
   xml:space="preserve"
   inkscape:version="1.3.2 (091e20e, 2023-11-25, custom)"
   sodipodi:docname="logo.svg"
   xmlns:inkscape="http://www.inkscape.org/namespaces/inkscape"
   xmlns:sodipodi="http://sodipodi.sourceforge.net/DTD/sodipodi-0.dtd"
   xmlns="http://www.w3.org/2000/svg"
   xmlns:svg="http://www.w3.org/2000/svg"><sodipodi:namedview
     id="namedview1"
     pagecolor="#ffffff"
     bordercolor="#000000"
     borderopacity="0.25"
     inkscape:showpageshadow="2"
     inkscape:pageopacity="0.0"
     inkscape:pagecheckerboard="0"
     inkscape:deskcolor="#d1d1d1"
     inkscape:document-units="px"
     showguides="true"
     inkscape:zoom="0.36213173"
     inkscape:cx="31.756399"
     inkscape:cy="490.15312"
     inkscape:window-width="1920"
     inkscape:window-height="1009"
     inkscape:window-x="-8"
     inkscape:window-y="-8"
     inkscape:window-maximized="1"
     inkscape:current-layer="layer2"><sodipodi:guide
       position="512,764.30113"
       orientation="-1,0"
       id="guide67"
       inkscape:locked="false"
       inkscape:label=""
       inkscape:color="rgb(0,134,229)" /><sodipodi:guide
       position="1095.4215,512"
       orientation="0,1"
       id="guide68"
       inkscape:locked="false"
       inkscape:label=""
       inkscape:color="rgb(0,134,229)" /></sodipodi:namedview><defs
     id="defs1"><inkscape:path-effect
       effect="fillet_chamfer"
       id="path-effect67"
       is_visible="true"
       lpeversion="1"
       nodesatellites_param="F,0,0,1,0,0,0,1 @ F,0,0,1,0,0,0,1 @ F,0,0,1,0,0,0,1 @ F,0,0,1,0,5,0,1 @ F,0,0,1,0,0,0,1 @ F,0,0,1,0,0,0,1 @ F,0,0,1,0,0,0,1 @ F,0,0,1,0,0,0,1 @ F,0,0,1,0,0,0,1 @ F,0,0,1,0,0,0,1"
       radius="0"
       unit="px"
       method="auto"
       mode="F"
       chamfer_steps="1"
       flexible="false"
       use_knot_distance="true"
       apply_no_radius="true"
       apply_with_radius="true"
       only_selected="false"
       hide_knots="false" /><inkscape:path-effect
       effect="fillet_chamfer"
       id="path-effect2"
       is_visible="true"
       lpeversion="1"
       nodesatellites_param="F,0,0,1,0,0,0,1 @ F,0,0,1,0,0,0,1 @ F,0,0,1,0,16.690065,0,1"
       radius="0"
       unit="px"
       method="auto"
       mode="F"
       chamfer_steps="1"
       flexible="false"
       use_knot_distance="true"
       apply_no_radius="true"
       apply_with_radius="true"
       only_selected="false"
       hide_knots="false" /><inkscape:path-effect
       effect="fillet_chamfer"
       id="path-effect1"
       is_visible="true"
       lpeversion="1"
       nodesatellites_param="F,0,0,1,0,0,0,1 @ F,0,0,1,0,0,0,1 @ F,0,0,1,0,0,0,1 @ F,0,0,1,0,0,0,1 @ F,0,0,1,0,0,0,1 @ F,0,0,1,0,15.826241,0,1 @ F,0,0,1,0,0,0,1 @ F,0,0,1,0,0,0,1 @ F,0,0,1,0,0,0,1 @ F,0,0,1,0,0,0,1 @ F,0,0,1,0,0,0,1 @ F,0,0,1,0,0,0,1"
       radius="0"
       unit="px"
       method="auto"
       mode="F"
       chamfer_steps="1"
       flexible="false"
       use_knot_distance="true"
       apply_no_radius="true"
       apply_with_radius="true"
       only_selected="false"
       hide_knots="false" /></defs><g
     inkscape:groupmode="layer"
     id="layer2"
     inkscape:label="Warstwa 2"><path
       id="rect2"
       style="display:inline;opacity:1;fill:#000000;fill-opacity:1;fill-rule:evenodd;stroke-width:43.2995;stroke-linejoin:round;paint-order:stroke fill markers"
       d="m 512.0012,11.077502 c -6.89016,0 -10.99143,2.181847 -14.03672,4.310918 L 74.180726,311.67345 c -7.776817,5.43704 -9.659765,16.07388 -4.222716,23.85072 l 21.21841,30.35286 c 5.437049,7.77682 16.07868,9.66213 23.8555,4.22509 L 484.00644,112.1361 a 48.854971,48.854971 0 0 1 55.98712,0 l 368.97692,257.96602 c 7.77682,5.43704 18.41607,3.55171 23.85313,-4.22509 l 21.22076,-30.35286 c 5.43706,-7.77681 3.55175,-18.41368 -4.22507,-23.85072 L 526.03791,15.38842 c -4.26764,-2.983649 -8.44695,-4.310918 -14.03671,-4.310918 z M 510.56819,145.0283 c -1.54468,0.0304 -3.09843,0.10962 -4.64712,0.24083 -8.10521,0.68597 -15.09827,2.70895 -19.24176,5.56747 l -123.40239,85.14541 -114.52071,79.01761 a 3.3615279,3.3615279 0 0 0 1.90749,6.1278 H 375.93783 512.0012 648.06455 784.12792 L 660.72549,235.98201 537.32069,150.8366 c -5.5417,-3.82347 -15.93963,-6.02128 -26.7525,-5.8083 z M 197.18493,351.33961 c -8.27734,0 -14.94276,6.66304 -14.94276,14.94038 0,8.27735 6.66542,14.94039 14.94276,14.94039 h 629.63251 c 8.27737,0 14.94038,-6.66304 14.94038,-14.94039 0,-8.27734 -6.66301,-14.94038 -14.94038,-14.94038 z m -10.01428,62.17926 c -12.38044,0 -22.34859,9.96336 -22.34859,22.34381 0,12.38041 9.96815,22.3486 22.34859,22.3486 h 16.9957 V 786.461 h -16.9957 c -12.38044,0 -22.34859,9.96342 -22.34859,22.3438 0,12.38046 9.96815,22.35097 22.34859,22.35097 h 139.97132 c 12.38049,0 22.34858,-9.97051 22.34858,-22.35097 0,-12.38038 -9.96809,-22.3438 -22.34858,-22.3438 h -16.9957 V 458.21128 h 16.9957 c 12.38049,0 22.34858,-9.96819 22.34858,-22.3486 0,-12.38045 -9.96809,-22.34381 -22.34858,-22.34381 z m 254.84488,0 c -12.38045,0 -22.34858,9.96336 -22.34858,22.34381 0,12.38041 9.96813,22.3486 22.34858,22.3486 h 16.99569 V 786.461 h -16.99569 c -12.38045,0 -22.34858,9.96342 -22.34858,22.3438 0,12.38046 9.96813,22.35097 22.34858,22.35097 h 139.97132 c 12.38049,0 22.34859,-9.97051 22.34859,-22.35097 0,-12.38038 -9.9681,-22.3438 -22.34859,-22.3438 H 564.99114 V 458.21128 h 16.99571 c 12.38049,0 22.34859,-9.96819 22.34859,-22.3486 0,-12.38045 -9.9681,-22.34381 -22.34859,-22.34381 z m 254.8449,0 c -12.3805,0 -22.35098,9.96336 -22.35098,22.34381 0,12.38041 9.97048,22.3486 22.35098,22.3486 h 16.9957 V 786.461 h -16.9957 c -12.3805,0 -22.35098,9.96342 -22.35098,22.3438 0,12.38046 9.97048,22.35097 22.35098,22.35097 h 139.97131 c 12.38046,0 22.34859,-9.97051 22.34859,-22.35097 0,-12.38038 -9.96812,-22.3438 -22.34859,-22.3438 H 819.83606 V 458.21128 h 16.99568 c 12.38046,0 22.34859,-9.96819 22.34859,-22.3486 0,-12.38045 -9.96812,-22.34381 -22.34859,-22.34381 z m -432.96116,69.76155 c 8.27732,0 14.94515,6.66543 14.94515,14.94275 v 245.9584 c 0,8.27736 -6.66783,14.94276 -14.94515,14.94276 -8.27732,0 -14.938,-6.6654 -14.938,-14.94276 v -245.9584 c 0,-8.27732 6.66068,-14.94275 14.938,-14.94275 z m 254.84488,0 c 8.27733,0 14.94278,6.66543 14.94278,14.94275 v 245.9584 c 0,8.27736 -6.66545,14.94276 -14.94278,14.94276 -8.27734,0 -14.93799,-6.6654 -14.93799,-14.94276 v -245.9584 c 0,-8.27732 6.66065,-14.94275 14.93799,-14.94275 z m 254.8449,0 c 8.27735,0 14.94277,6.66543 14.94277,14.94275 v 245.9584 c 0,8.27736 -6.66542,14.94276 -14.94277,14.94276 -8.2773,0 -14.93801,-6.6654 -14.93801,-14.94276 v -245.9584 c 0,-8.27732 6.66071,-14.94275 14.93801,-14.94275 z M 113.00282,863.31121 c -14.467997,0 -26.115869,11.64787 -26.115869,26.11587 0,14.46799 11.647872,26.11586 26.115869,26.11586 h 797.99436 c 14.468,0 26.11587,-11.64787 26.11587,-26.11586 0,-14.468 -11.64787,-26.11587 -26.11587,-26.11587 z M 37.76204,947.2835 c -18.182388,0 -32.8206829,14.63593 -32.8206829,32.81832 0,18.18237 14.6382949,32.82068 32.8206829,32.82068 h 948.47831 c 18.18245,0 32.81825,-14.63831 32.81825,-32.82068 0,-18.18239 -14.6358,-32.81832 -32.81825,-32.81832 z" /></g></svg>
